PathFileType	4	(X/Y/Z)	s06c0101.trc
DataRate	CameraRate	NumFrames	NumMarkers	Units	OrigDataRate	OrigDataStartFrame	OrigNumFrames
200	200	6	49	mm	200	0	2000
Frame#	Time	racr			lacr			c7			jug			rlel			rdr			llel			ldr			s2			lic			ric			lasi			rasi			rpsi			lpsi			rgt			lgt			rth1			rth2			rth3			rth4			rlfc			rmfc			rsh1			rsh2			rsh3			rsh4			rlmal			rmmal			rcal			rtoe			rmt5			lth1			lth2			lth4			lth3			llfc			lmfc			llmal			lcal			lmt5			lsh1			lsh2			lsh3			lsh4			ltoe			SBIKE			LBIKE			RBIKE			
		X1	Y1	Z1	X2	Y2	Z2	X3	Y3	Z3	X4	Y4	Z4	X5	Y5	Z5	X6	Y6	Z6	X7	Y7	Z7	X8	Y8	Z8	X9	Y9	Z9	X10	Y10	Z10	X11	Y11	Z11	X12	Y12	Z12	X13	Y13	Z13	X14	Y14	Z14	X15	Y15	Z15	X16	Y16	Z16	X17	Y17	Z17	X18	Y18	Z18	X19	Y19	Z19	X20	Y20	Z20	X21	Y21	Z21	X22	Y22	Z22	X23	Y23	Z23	X24	Y24	Z24	X25	Y25	Z25	X26	Y26	Z26	X27	Y27	Z27	X28	Y28	Z28	X29	Y29	Z29	X30	Y30	Z30	X31	Y31	Z31	X32	Y32	Z32	X33	Y33	Z33	X34	Y34	Z34	X35	Y35	Z35	X36	Y36	Z36	X37	Y37	Z37	X38	Y38	Z38	X39	Y39	Z39	X40	Y40	Z40	X41	Y41	Z41	X42	Y42	Z42	X43	Y43	Z43	X44	Y44	Z44	X45	Y45	Z45	X46	Y46	Z46	X47	Y47	Z47	X48	Y48	Z48	X49	Y49	Z49	
0	0.0000	461.073885	1336.591586	-71.965121	483.962192	1345.298374	-392.246459	459.844841	1417.752386	-232.520217	481.468771	1259.665595	-229.944000	537.677344	1097.318386	8.789832	716.412540	922.937727	-56.936402	536.720819	1089.449096	-470.429296	714.938387	922.208929	-406.559349	-35.545163	1130.154643	-224.670688	147.993415	1095.613513	-394.744817	121.106230	1101.460520	-56.727937	155.879908	1031.234098	-363.773815	145.563040	1054.890600	-80.910900	2.735316	1170.100030	-197.748853	0.146597	1162.669585	-261.273554	80.354219	1049.943946	-24.587759	104.471980	1023.378092	-426.053839	181.484615	987.924931	-15.427282	271.367010	973.973121	-17.459141	338.777950	919.936463	-17.109791	282.970821	1004.322786	-37.974926	413.015052	840.983420	-38.105409	419.248837	815.972888	-148.602010	378.063880	722.521118	-15.386490	372.810252	637.481860	-36.579441	327.848631	563.252778	-43.450894	396.256728	635.047929	-68.961254	297.792260	486.675596	-51.162093	332.875332	492.067855	-143.358876	232.165747	478.365231	-101.603547	486.270400	372.240661	-111.031665	391.249465	384.046833	-37.643903	152.752430	912.920256	-435.159799	223.857337	862.507839	-428.966622	251.430300	885.117247	-416.247178	260.218207	781.290238	-423.138914	289.163539	674.239642	-396.400519	290.783157	655.639070	-280.047651	47.745132	394.035173	-390.563084	-18.802992	421.737038	-344.804408	89.638465	252.974308	-406.091983	224.276689	592.006919	-419.462239	186.840580	515.263122	-402.042866	115.461573	463.919809	-405.870886	207.706849	502.175230	-371.655219	152.420784	198.260085	-343.749528	-160.964859	857.407464	-225.533948	-50.179216	79.750035	-420.172637	-49.780221	79.284478	-22.748124	
1	0.0050	461.105244	1336.589968	-71.968116	483.964251	1345.294869	-392.266634	459.829402	1417.750889	-232.511613	481.439204	1259.695753	-229.943284	537.680221	1097.327153	8.775880	716.426822	922.933517	-56.936245	536.705757	1089.451484	-470.457951	714.918283	922.206211	-406.597760	-35.558691	1130.176870	-224.681427	147.991301	1095.606201	-394.778915	121.132888	1101.429722	-56.754988	155.873405	1031.241078	-363.830506	145.557593	1054.839006	-80.930418	2.739728	1170.090611	-197.774286	0.153145	1162.669505	-261.292958	80.366650	1049.963560	-24.603277	104.472775	1023.358015	-426.071152	181.505687	987.943827	-15.447307	271.390136	974.027483	-17.461069	338.805454	919.984028	-17.107982	282.982976	1004.338964	-37.980530	413.025871	841.018067	-38.101516	419.246939	816.005255	-148.612014	378.082762	722.504025	-15.404483	372.815639	637.492138	-36.559464	327.862900	563.279414	-43.454345	396.274097	635.048690	-68.976118	297.670823	486.656293	-51.237133	332.883126	492.053695	-143.379405	232.182060	478.383905	-101.583203	486.259688	372.239128	-111.055810	391.260373	384.062611	-37.664496	152.740333	912.920504	-435.171139	223.433416	863.569482	-429.255093	251.279864	885.452517	-416.264489	260.201119	781.305920	-423.162816	289.143938	674.254790	-396.411161	290.813833	655.678830	-280.086238	47.755872	394.035167	-390.566635	-18.782658	421.717549	-344.814996	89.640682	252.971818	-406.084885	224.279410	592.001496	-419.484839	186.846865	515.266160	-402.079453	115.448347	463.937430	-405.890276	207.700451	502.167635	-371.672482	152.431550	198.264368	-343.735239	-160.520780	857.265379	-224.898264	-50.159646	79.771038	-420.165422	-49.756356	79.262040	-22.763502	
2	0.0100	461.111704	1336.599096	-71.970738	483.966874	1345.310645	-392.299159	459.817907	1417.771538	-232.533238	481.459407	1259.723864	-229.975302	537.675351	1097.336219	8.779104	716.410638	922.943010	-56.938956	536.693794	1089.447856	-470.489913	714.908491	922.205589	-406.604797	-35.547718	1130.174579	-224.678713	148.007971	1095.592668	-394.800812	121.145139	1101.443222	-56.771571	155.894567	1031.216539	-363.842601	145.568327	1054.854645	-80.952633	2.734558	1170.106412	-197.769059	0.162644	1162.671958	-261.315421	80.379735	1049.972796	-24.619032	104.463027	1023.357915	-426.080788	181.517854	987.982026	-15.442247	271.397672	974.036467	-17.477557	338.800767	919.999745	-17.104999	283.004625	1004.360781	-38.001388	413.040023	841.021929	-38.111708	419.249281	815.997911	-148.613900	378.118726	722.517169	-15.408267	372.830671	637.500359	-36.578887	327.883078	563.293288	-43.452594	396.280162	635.053575	-68.970050	297.686490	486.675334	-51.234331	332.884645	492.061929	-143.365320	232.190355	478.397623	-101.584666	486.265558	372.241267	-111.029128	391.255857	384.060436	-37.656464	152.741134	912.937427	-435.193139	223.833471	862.526110	-429.023334	251.433126	885.135534	-416.290625	260.195015	781.333453	-423.203395	289.145782	674.263299	-396.455815	290.832506	655.684819	-280.103157	47.764459	394.027162	-390.570460	-18.766193	421.714249	-344.803671	89.645061	252.978560	-406.096905	224.274419	591.995813	-419.497335	186.838786	515.266870	-402.093407	115.466476	463.927061	-405.895517	207.708844	502.170110	-371.672234	152.418986	198.257206	-343.760753	-161.394847	857.695550	-223.616509	-50.158652	79.775889	-420.172862	-49.761200	79.260129	-22.765378	
3	0.0150	461.121317	1336.606538	-71.994714	483.798678	1345.281594	-392.816558	459.813209	1417.780369	-232.541003	481.481655	1259.739287	-229.982963	537.694563	1097.346681	8.775596	716.426591	922.945088	-56.932843	536.749402	1089.483731	-470.632444	714.679068	922.538047	-407.681168	-35.704300	1130.598158	-224.632124	148.027833	1095.581144	-394.805559	121.175668	1101.437495	-56.794052	155.903488	1031.177184	-363.835452	145.601253	1054.855287	-80.984826	2.272038	1169.803437	-197.615857	-1.304225	1163.878081	-260.932427	80.402775	1049.994381	-24.621119	104.399563	1023.294040	-425.895637	181.537937	987.999448	-15.457360	271.418098	974.055700	-17.482795	338.675899	919.924940	-16.990934	282.903417	1004.283654	-38.316902	413.718333	840.869188	-37.814734	419.133002	815.614135	-147.989272	378.151505	722.524788	-15.415149	372.998564	637.326276	-36.338773	328.217995	563.133700	-43.362496	396.277189	634.842685	-68.971287	297.834920	486.663858	-51.146260	332.997103	491.947986	-143.402639	232.203403	478.400172	-101.580149	486.273488	372.239808	-111.046180	391.493590	383.920320	-37.739673	152.728698	912.962052	-435.225759	223.705576	862.849820	-429.031242	251.240238	885.405519	-416.188132	260.155417	781.242184	-423.223141	289.148232	674.252254	-396.461508	290.821519	655.673481	-280.119417	47.771847	394.019860	-390.568337	-18.763780	421.716034	-344.802234	89.402042	252.688191	-405.672803	224.281217	591.990054	-419.511157	186.733122	515.304350	-402.534124	115.798231	463.344752	-406.095799	207.611344	501.855758	-371.333069	152.435320	198.253994	-343.746804	-160.678832	857.286304	-225.016889	-50.165406	79.772087	-420.183448	-49.760175	79.255402	-22.766537	
4	0.0200	461.128201	1337.074602	-71.754935	483.741275	1345.580248	-392.892197	459.820529	1417.777456	-232.598163	481.327122	1260.003695	-229.841478	537.693118	1097.593876	8.858187	716.535238	923.120177	-56.964221	536.640532	1089.657894	-470.647173	714.856862	922.707454	-407.713147	-35.809619	1130.850511	-224.487772	148.057920	1095.317415	-394.999330	121.233682	1101.779451	-56.661077	155.958548	1031.249747	-363.853811	145.694679	1055.197370	-80.816138	2.343407	1169.971400	-197.534035	-1.374222	1164.023465	-260.720826	80.152534	1050.276620	-24.596345	104.243310	1023.464579	-425.953883	181.474281	988.252131	-15.439898	271.541758	974.265754	-17.514955	338.529222	920.240316	-16.878462	282.876915	1004.522534	-38.259178	413.563801	841.279095	-37.650500	419.086794	815.650125	-147.991270	378.147921	722.757367	-15.341162	372.920225	637.535901	-36.230058	327.947054	563.410862	-43.274131	396.233994	635.147118	-68.778233	297.293862	487.173428	-50.465174	332.732419	492.388906	-143.443546	232.143766	478.366480	-101.541995	486.365363	372.267129	-111.024901	391.285137	384.231791	-37.574246	152.577018	912.961354	-435.069524	223.680493	862.842565	-429.106911	251.185594	885.394174	-416.293311	260.158178	781.297086	-423.420023	288.999950	674.508319	-396.465218	290.662933	655.946268	-280.064480	47.769678	394.099758	-390.718032	-18.741876	421.722196	-344.734811	89.382580	252.762207	-405.821791	224.083191	592.227681	-419.427200	186.627096	515.635554	-402.549121	115.743315	463.288865	-405.837884	207.606703	501.945308	-371.446658	152.375733	198.290314	-343.864088	-160.446642	857.460129	-224.364295	-49.956391	80.307053	-419.950280	-49.924362	79.548845	-22.855309	
5	0.0250	461.144306	1337.149043	-71.733555	483.738628	1345.623190	-392.906519	459.804078	1417.790426	-232.606979	481.317858	1260.032164	-229.862369	537.690300	1097.647141	8.838708	716.429194	922.967078	-56.954689	536.615109	1089.665281	-470.688171	714.879825	922.720966	-407.693324	-35.821379	1130.913890	-224.485363	148.028547	1095.552433	-394.890291	121.280031	1101.827222	-56.668849	155.981096	1031.264257	-363.878982	145.736879	1055.243779	-80.825700	2.339868	1170.013099	-197.538773	-1.419333	1164.046104	-260.656615	80.107085	1050.265409	-24.582781	104.221078	1023.552296	-425.947078	181.473262	988.308632	-15.447478	271.527093	974.326428	-17.543960	338.530492	920.276731	-16.921886	282.887193	1004.566725	-38.253202	413.577505	841.334419	-37.618564	419.089195	815.678371	-148.010128	378.165953	722.779739	-15.326283	372.934502	637.589773	-36.255639	327.897059	563.468041	-43.269303	396.199646	635.191861	-68.807220	297.616306	487.001318	-50.796616	332.703685	492.450760	-143.441118	232.195604	478.407683	-101.532747	486.365533	372.290054	-111.012444	391.251543	384.280478	-37.549593	152.589431	913.074461	-435.080420	223.733925	862.760921	-429.122535	251.233913	885.324851	-416.321403	260.099187	781.345632	-423.341317	288.976169	674.459403	-396.514854	290.628541	655.990142	-280.088976	47.702444	394.059870	-390.662244	-18.718509	421.682408	-344.810634	89.375589	252.787345	-405.866736	224.108057	592.243482	-419.592538	186.616067	515.665173	-402.588634	115.814390	463.296697	-405.927139	207.716345	502.268986	-371.842885	152.363617	198.315929	-343.896841	-160.565199	857.221112	-225.170448	-50.072833	79.926209	-420.199500	-50.022757	79.869268	-22.678545	
